<svg xmlns="http://www.w3.org/2000/svg" viewBox="0 0 100 100">
  <defs>
    <linearGradient id="bg" x1="0" y1="0" x2="1" y2="1">
      <stop offset="0%" stop-color="#60A5FA"/>
      <stop offset="100%" stop-color="#1D4ED8"/>
    </linearGradient>
    <filter id="shadow" x="-10%" y="-10%" width="120%" height="120%">
      <feDropShadow dx="0" dy="2" stdDeviation="3" flood-color="rgba(0,0,0,.25)"/>
    </filter>
  </defs>
  <!-- App icon rounded square -->
  <rect width="100" height="100" rx="22" fill="url(#bg)"/>
  <!-- Subtle inner highlight (glass effect) -->
  <rect width="100" height="52" rx="22" fill="rgba(255,255,255,.08)"/>
  <!-- Phone handset — centered, scaled from 24×24 viewBox -->
  <g transform="translate(16 16) scale(2.85)" filter="url(#shadow)">
    <path fill="white"
      d="M6.6 10.8c1.4 2.8 3.8 5.1 6.6 6.6l2.2-2.2c.3-.3.7-.4 1-.2
         1.1.4 2.3.6 3.6.6.6 0 1 .4 1 1V20c0 .6-.4 1-1 1C10.6 21 3 13.4 3 4c0-.6.4-1 1-1h3.5
         c.6 0 1 .4 1 1 0 1.25.2 2.45.6 3.6.1.3 0 .7-.2 1L6.6 10.8z"/>
  </g>
</svg>
