<svg xmlns="http://www.w3.org/2000/svg" viewBox="0 0 40 40">
  <defs>
    <linearGradient id="lg" x1="0%" y1="0%" x2="100%" y2="100%">
      <stop offset="0%" stop-color="#5b9cf6"/>
      <stop offset="100%" stop-color="#2563eb"/>
    </linearGradient>
  </defs>
  <rect width="40" height="40" rx="10" fill="url(#lg)"/>
  <path fill="white" d="M27.6 24.1l-3.2-1.4c-.5-.2-1 0-1.3.4l-1.4 1.7c-2.5-1.2-4.5-3.2-5.7-5.7l1.7-1.4c.4-.3.6-.9.4-1.3l-1.4-3.2c-.2-.5-.8-.7-1.2-.5l-3 .9c-.5.1-.8.6-.7 1.1.8 7.3 6.7 13.2 14 14 .5.1 1-.2 1.1-.7l.9-3c.2-.4 0-1-.2-1.1z"/>
  <circle cx="29" cy="13" r="4.5" fill="white" opacity="0.9"/>
  <rect x="27.5" y="12" width="3" height="1" rx="0.5" fill="#2563eb"/>
  <rect x="27.5" y="13.5" width="3" height="1" rx="0.5" fill="#2563eb"/>
  <rect x="27.5" y="15" width="2" height="1" rx="0.5" fill="#2563eb"/>
</svg>
